<?xml version="1.0" encoding="UTF-8" standalone="no"?>
<!-- Generator: Adobe Illustrator 13.0.2, SVG Export Plug-In . SVG Version: 6.00 Build 14948)  -->

<svg
   xmlns:dc="http://purl.org/dc/elements/1.1/"
   xmlns:cc="http://creativecommons.org/ns#"
   xmlns:rdf="http://www.w3.org/1999/02/22-rdf-syntax-ns#"
   xmlns:svg="http://www.w3.org/2000/svg"
   xmlns="http://www.w3.org/2000/svg"
   xmlns:sodipodi="http://sodipodi.sourceforge.net/DTD/sodipodi-0.dtd"
   xmlns:inkscape="http://www.inkscape.org/namespaces/inkscape"
   version="1.1"
   id="Layer_1"
   x="0px"
   y="0px"
   width="64px"
   height="64px"
   viewBox="-0.5 0.5 64 64"
   enable-background="new -0.5 0.5 64 64"
   xml:space="preserve"
   inkscape:version="0.48.2 r9819"
   sodipodi:docname="gotime.svg"><metadata
   id="metadata13"><rdf:RDF><cc:Work
       rdf:about=""><dc:format>image/svg+xml</dc:format><dc:type
         rdf:resource="http://purl.org/dc/dcmitype/StillImage" /><dc:title /></cc:Work></rdf:RDF></metadata><defs
   id="defs11" /><sodipodi:namedview
   pagecolor="#ffffff"
   bordercolor="#666666"
   borderopacity="1"
   objecttolerance="10"
   gridtolerance="10"
   guidetolerance="10"
   inkscape:pageopacity="0"
   inkscape:pageshadow="2"
   inkscape:window-width="1920"
   inkscape:window-height="1178"
   id="namedview9"
   showgrid="false"
   inkscape:zoom="8"
   inkscape:cx="19.681834"
   inkscape:cy="21.522802"
   inkscape:window-x="1192"
   inkscape:window-y="-8"
   inkscape:window-maximized="1"
   inkscape:current-layer="g3" />
<g
   id="g3">
	<circle
   fill="#FFFFFF"
   cx="31.325"
   cy="32.873"
   r="30.096"
   id="circle5" />
	
	
<path
   sodipodi:type="arc"
   style="opacity:0.98999999;fill:none;stroke:#000000;stroke-width:0.40056711;stroke-linecap:round;stroke-linejoin:round;stroke-miterlimit:4.5999999;stroke-opacity:1;stroke-dasharray:none"
   id="path2990"
   sodipodi:cx="-28.188393"
   sodipodi:cy="6.856184"
   sodipodi:rx="10.546678"
   sodipodi:ry="10.163162"
   d="m -17.641715,6.856184 a 10.546678,10.163162 0 1 1 -21.093355,0 10.546678,10.163162 0 1 1 21.093355,0 z"
   transform="matrix(2.9075888,0,0,3.0314602,113.33999,11.596324)" /><path
   style="fill:none;stroke:#000000;stroke-width:2.24303865;stroke-linecap:round;stroke-linejoin:miter;stroke-miterlimit:4;stroke-opacity:1;stroke-dasharray:none"
   d="m 10.560536,46.869325 c 13.445492,24.95385 43.01321,4.429599 27.555338,-14.563973"
   id="path2993"
   inkscape:connector-curvature="0"
   sodipodi:nodetypes="cc" /><path
   style="fill:#000000;stroke:#000000;stroke-width:2;stroke-linecap:round;stroke-linejoin:round;stroke-miterlimit:4;stroke-opacity:1;stroke-dasharray:none"
   d="m 37.601696,31.822033 1.491526,6.779661 4.338983,-2.847457 z"
   id="path3767"
   inkscape:connector-curvature="0" /><path
   sodipodi:type="arc"
   style="opacity:0.98999999;fill:none;stroke:#000000;stroke-width:0.40056711;stroke-linecap:round;stroke-linejoin:round;stroke-miterlimit:4.5999999;stroke-opacity:1;stroke-dasharray:none"
   id="path2990-1"
   sodipodi:cx="-28.188393"
   sodipodi:cy="6.856184"
   sodipodi:rx="10.546678"
   sodipodi:ry="10.163162"
   d="m -17.641715,6.856184 a 10.546678,10.163162 0 1 1 -21.093355,0 10.546678,10.163162 0 1 1 21.093355,0 z"
   transform="matrix(1.674269,0,0,1.737504,82.519274,16.999527)" /><path
   style="fill:none;stroke:#000000;stroke-width:1.61092532px;stroke-linecap:round;stroke-linejoin:miter;stroke-opacity:1"
   d="M 35.911362,29.530647 44.259335,17.8684"
   id="path3006"
   inkscape:connector-curvature="0" /><path
   style="fill:none;stroke:#000000;stroke-width:1.96373463;stroke-linecap:round;stroke-linejoin:miter;stroke-miterlimit:4;stroke-opacity:1;stroke-dasharray:none"
   d="m 35.788404,28.579846 7.701536,3.337125"
   id="path3010"
   inkscape:connector-curvature="0" /><path
   sodipodi:type="arc"
   style="opacity:0.98999999;fill:#000000;stroke:#000000;stroke-width:0.40056711;stroke-linecap:round;stroke-linejoin:round;stroke-miterlimit:4.5999999;stroke-opacity:1;stroke-dasharray:none"
   id="path2990-1-7"
   sodipodi:cx="-28.188393"
   sodipodi:cy="6.856184"
   sodipodi:rx="10.546678"
   sodipodi:ry="10.163162"
   d="m -17.641715,6.856184 a 10.546678,10.163162 0 1 1 -21.093355,0 10.546678,10.163162 0 1 1 21.093355,0 z"
   transform="matrix(0.1586235,0,0,0.15411074,39.777416,13.846817)" /><path
   sodipodi:type="arc"
   style="opacity:0.98999999;fill:#000000;stroke:#000000;stroke-width:0.40056711;stroke-linecap:round;stroke-linejoin:round;stroke-miterlimit:4.5999999;stroke-opacity:1;stroke-dasharray:none"
   id="path2990-1-7-4"
   sodipodi:cx="-28.188393"
   sodipodi:cy="6.856184"
   sodipodi:rx="10.546678"
   sodipodi:ry="10.163162"
   d="m -17.641715,6.856184 a 10.546678,10.163162 0 1 1 -21.093355,0 10.546678,10.163162 0 1 1 21.093355,0 z"
   transform="matrix(0.1586235,0,0,0.15411074,25.823977,27.675898)" /><path
   sodipodi:type="arc"
   style="opacity:0.98999999;fill:#000000;stroke:#000000;stroke-width:0.40056711;stroke-linecap:round;stroke-linejoin:round;stroke-miterlimit:4.5999999;stroke-opacity:1;stroke-dasharray:none"
   id="path2990-1-7-0"
   sodipodi:cx="-28.188393"
   sodipodi:cy="6.856184"
   sodipodi:rx="10.546678"
   sodipodi:ry="10.163162"
   d="m -17.641715,6.856184 a 10.546678,10.163162 0 1 1 -21.093355,0 10.546678,10.163162 0 1 1 21.093355,0 z"
   transform="matrix(0.1586235,0,0,0.15411074,54.735789,26.550888)" /><path
   sodipodi:type="arc"
   style="opacity:0.98999999;fill:#000000;stroke:#000000;stroke-width:0.40056711;stroke-linecap:round;stroke-linejoin:round;stroke-miterlimit:4.5999999;stroke-opacity:1;stroke-dasharray:none"
   id="path2990-1-7-9"
   sodipodi:cx="-28.188393"
   sodipodi:cy="6.856184"
   sodipodi:rx="10.546678"
   sodipodi:ry="10.163162"
   d="m -17.641715,6.856184 a 10.546678,10.163162 0 1 1 -21.093355,0 10.546678,10.163162 0 1 1 21.093355,0 z"
   transform="matrix(0.1586235,0,0,0.15411074,39.773645,41.401006)" /></g>
</svg>