<?xml version="1.0" encoding="UTF-8" standalone="no"?>
<!-- Generator: Adobe Illustrator 13.0.2, SVG Export Plug-In . SVG Version: 6.00 Build 14948)  -->

<svg
   xmlns:dc="http://purl.org/dc/elements/1.1/"
   xmlns:cc="http://creativecommons.org/ns#"
   xmlns:rdf="http://www.w3.org/1999/02/22-rdf-syntax-ns#"
   xmlns:svg="http://www.w3.org/2000/svg"
   xmlns="http://www.w3.org/2000/svg"
   xmlns:sodipodi="http://sodipodi.sourceforge.net/DTD/sodipodi-0.dtd"
   xmlns:inkscape="http://www.inkscape.org/namespaces/inkscape"
   version="1.1"
   id="Layer_1"
   x="0px"
   y="0px"
   width="64px"
   height="64px"
   viewBox="-0.5 0.5 64 64"
   enable-background="new -0.5 0.5 64 64"
   xml:space="preserve"
   inkscape:version="0.48.2 r9819"
   sodipodi:docname="log.svg"><metadata
   id="metadata13"><rdf:RDF><cc:Work
       rdf:about=""><dc:format>image/svg+xml</dc:format><dc:type
         rdf:resource="http://purl.org/dc/dcmitype/StillImage" /><dc:title /></cc:Work></rdf:RDF></metadata><defs
   id="defs11" /><sodipodi:namedview
   pagecolor="#ffffff"
   bordercolor="#666666"
   borderopacity="1"
   objecttolerance="10"
   gridtolerance="10"
   guidetolerance="10"
   inkscape:pageopacity="0"
   inkscape:pageshadow="2"
   inkscape:window-width="1920"
   inkscape:window-height="1178"
   id="namedview9"
   showgrid="false"
   inkscape:zoom="7.479256"
   inkscape:cx="92.348145"
   inkscape:cy="7.0064116"
   inkscape:window-x="1192"
   inkscape:window-y="-8"
   inkscape:window-maximized="1"
   inkscape:current-layer="g3" />
<g
   id="g3">
	
	
	
<path
   sodipodi:type="arc"
   style="opacity:0.98999999;fill:none;stroke:#000000;stroke-width:0.40056711;stroke-linecap:round;stroke-linejoin:round;stroke-miterlimit:4.5999999;stroke-opacity:1;stroke-dasharray:none"
   id="path2990"
   sodipodi:cx="-28.188393"
   sodipodi:cy="6.856184"
   sodipodi:rx="10.546678"
   sodipodi:ry="10.163162"
   d="m -17.641715,6.856184 a 10.546678,10.163162 0 1 1 -21.093355,0 10.546678,10.163162 0 1 1 21.093355,0 z"
   transform="matrix(2.9075888,0,0,3.0314602,113.06881,11.86751)" /><g
   id="g3011"
   transform="matrix(0.81810703,0,0,0.88025208,9.0157919,4.830533)"
   style="fill:#000000;stroke:#000000;stroke-width:3;stroke-linejoin:round;stroke-miterlimit:4;stroke-opacity:1;stroke-dasharray:none"><path
     d="m 18.201392,15.519601 8.065928,4.634625 c 0.404902,0.235093 0.674171,0.444994 0.807807,0.629705 0.13361,0.184716 0.20042,0.419805 0.200434,0.705269 -1.4e-5,0.361032 -0.12554,0.673784 -0.376572,0.938259 -0.251062,0.264477 -0.542601,0.396714 -0.874619,0.396714 -0.218667,0 -0.546648,-0.125949 -0.983945,-0.377822 l -12.01386,-6.92675 12.01386,-6.9267491 c 0.437297,-0.2434717 0.761229,-0.3652133 0.971798,-0.3652278 0.340116,1.45e-5 0.635704,0.1301564 0.886766,0.390416 0.251035,0.2602918 0.376558,0.5709455 0.376572,0.9319627 -1.4e-5,0.2854784 -0.06683,0.5205692 -0.200434,0.7052692 -0.133642,0.184725 -0.402905,0.394626 -0.807807,0.629704 z"
     style="font-size:16px;font-style:normal;font-variant:normal;font-weight:bold;font-stretch:normal;text-align:start;line-height:85.00000238%;letter-spacing:0px;word-spacing:0px;writing-mode:lr-tb;text-anchor:start;fill:#000000;fill-opacity:1;stroke:#000000;stroke-width:3;stroke-linejoin:round;stroke-miterlimit:4;stroke-opacity:1;stroke-dasharray:none;font-family:Courier New;-inkscape-font-specification:Courier New Bold"
     id="path2993"
     inkscape:connector-curvature="0" /><path
     d="m 22.708108,30.604803 c -9e-6,0.486973 -0.166025,0.894181 -0.498047,1.221626 -0.332039,0.327446 -0.789595,0.49117 -1.372665,0.49117 -0.583087,0 -1.04064,-0.163724 -1.372666,-0.49117 -0.332036,-0.327445 -0.498052,-0.734653 -0.498046,-1.221626 -6e-6,-0.486969 0.16601,-0.894178 0.498046,-1.221628 0.332026,-0.327443 0.789579,-0.491165 1.372666,-0.491168 0.58307,3e-6 1.040626,0.163725 1.372665,0.491168 0.332022,0.32745 0.498038,0.734659 0.498047,1.221628 z"
     style="font-size:16px;font-style:normal;font-variant:normal;font-weight:bold;font-stretch:normal;text-align:start;line-height:85.00000238%;letter-spacing:0px;word-spacing:0px;writing-mode:lr-tb;text-anchor:start;fill:#000000;fill-opacity:1;stroke:#000000;stroke-width:3;stroke-linejoin:round;stroke-miterlimit:4;stroke-opacity:1;stroke-dasharray:none;font-family:Courier New;-inkscape-font-specification:Courier New Bold"
     id="path2995"
     inkscape:connector-curvature="0" /><path
     d="m 31.625215,30.604803 c -9e-6,0.486973 -0.166025,0.894181 -0.498047,1.221626 -0.332039,0.327446 -0.789595,0.49117 -1.372665,0.49117 -0.583087,0 -1.04064,-0.163724 -1.372666,-0.49117 -0.332036,-0.327445 -0.498052,-0.734653 -0.498046,-1.221626 -6e-6,-0.486969 0.16601,-0.894178 0.498046,-1.221628 0.332026,-0.327443 0.789579,-0.491165 1.372666,-0.491168 0.58307,3e-6 1.040626,0.163725 1.372665,0.491168 0.332022,0.32745 0.498038,0.734659 0.498047,1.221628 z"
     style="font-size:16px;font-style:normal;font-variant:normal;font-weight:bold;font-stretch:normal;text-align:start;line-height:85.00000238%;letter-spacing:0px;word-spacing:0px;writing-mode:lr-tb;text-anchor:start;fill:#000000;fill-opacity:1;stroke:#000000;stroke-width:3;stroke-linejoin:round;stroke-miterlimit:4;stroke-opacity:1;stroke-dasharray:none;font-family:Courier New;-inkscape-font-specification:Courier New Bold"
     id="path2997"
     inkscape:connector-curvature="0" /><path
     d="m 40.542322,30.604803 c -9e-6,0.486973 -0.166025,0.894181 -0.498047,1.221626 -0.33204,0.327446 -0.789595,0.49117 -1.372665,0.49117 -0.583087,0 -1.04064,-0.163724 -1.372666,-0.49117 -0.332036,-0.327445 -0.498052,-0.734653 -0.498046,-1.221626 -6e-6,-0.486969 0.16601,-0.894178 0.498046,-1.221628 0.332026,-0.327443 0.789579,-0.491165 1.372666,-0.491168 0.58307,3e-6 1.040625,0.163725 1.372665,0.491168 0.332022,0.32745 0.498038,0.734659 0.498047,1.221628 z"
     style="font-size:16px;font-style:normal;font-variant:normal;font-weight:bold;font-stretch:normal;text-align:start;line-height:85.00000238%;letter-spacing:0px;word-spacing:0px;writing-mode:lr-tb;text-anchor:start;fill:#000000;fill-opacity:1;stroke:#000000;stroke-width:3;stroke-linejoin:round;stroke-miterlimit:4;stroke-opacity:1;stroke-dasharray:none;font-family:Courier New;-inkscape-font-specification:Courier New Bold"
     id="path2999"
     inkscape:connector-curvature="0" /><path
     d="m 25.939338,37.831293 -7.980895,17.833231 c -0.202463,0.444988 -0.384674,0.734651 -0.546636,0.868991 -0.210562,0.176314 -0.465658,0.264474 -0.765292,0.264477 -0.340133,-3e-6 -0.633697,-0.125949 -0.880692,-0.377823 -0.247002,-0.251885 -0.370501,-0.53735 -0.370498,-0.856398 -3e-6,-0.226695 0.09718,-0.558339 0.291539,-0.994934 l 8.00519,-17.820636 c 0.202448,-0.444974 0.38061,-0.734637 0.534489,-0.868993 0.218644,-0.176298 0.47374,-0.264458 0.765292,-0.264475 0.340117,1.7e-5 0.631657,0.123853 0.874619,0.371526 0.242935,0.2477 0.36441,0.531067 0.364424,0.8501 -1.4e-5,0.226711 -0.09719,0.558355 -0.29154,0.994934 z"
     style="font-size:16px;font-style:normal;font-variant:normal;font-weight:bold;font-stretch:normal;text-align:start;line-height:85.00000238%;letter-spacing:0px;word-spacing:0px;writing-mode:lr-tb;text-anchor:start;fill:#000000;fill-opacity:1;stroke:#000000;stroke-width:3;stroke-linejoin:round;stroke-miterlimit:4;stroke-opacity:1;stroke-dasharray:none;font-family:Courier New;-inkscape-font-specification:Courier New Bold"
     id="path3001"
     inkscape:connector-curvature="0" /><path
     d="m 38.354064,46.470838 -8.065927,-4.634625 c -0.404918,-0.235078 -0.674187,-0.444979 -0.807809,-0.629704 -0.133626,-0.184702 -0.200434,-0.419791 -0.200433,-0.705269 -1e-6,-0.361018 0.125525,-0.671671 0.376573,-0.931963 0.251046,-0.260265 0.546634,-0.390403 0.886765,-0.390418 0.210554,1.5e-5 0.534486,0.121758 0.971799,0.36523 l 12.013859,6.926749 -12.013859,6.92675 c -0.437313,0.251881 -0.761245,0.377822 -0.971799,0.377822 -0.340131,0 -0.635719,-0.13014 -0.886765,-0.390417 -0.251049,-0.260278 -0.376574,-0.575129 -0.376573,-0.944556 -1e-6,-0.285466 0.06681,-0.520555 0.200433,-0.705269 0.133626,-0.184711 0.402891,-0.394612 0.807809,-0.629705 z"
     style="font-size:16px;font-style:normal;font-variant:normal;font-weight:bold;font-stretch:normal;text-align:start;line-height:85.00000238%;letter-spacing:0px;word-spacing:0px;writing-mode:lr-tb;text-anchor:start;fill:#000000;fill-opacity:1;stroke:#000000;stroke-width:3;stroke-linejoin:round;stroke-miterlimit:4;stroke-opacity:1;stroke-dasharray:none;font-family:Courier New;-inkscape-font-specification:Courier New Bold"
     id="path3003"
     inkscape:connector-curvature="0" /></g></g>
</svg>