<?xml version="1.0" encoding="UTF-8" standalone="no"?>
<!-- Generator: Adobe Illustrator 13.0.2, SVG Export Plug-In . SVG Version: 6.00 Build 14948)  -->

<svg
   xmlns:dc="http://purl.org/dc/elements/1.1/"
   xmlns:cc="http://creativecommons.org/ns#"
   xmlns:rdf="http://www.w3.org/1999/02/22-rdf-syntax-ns#"
   xmlns:svg="http://www.w3.org/2000/svg"
   xmlns="http://www.w3.org/2000/svg"
   xmlns:sodipodi="http://sodipodi.sourceforge.net/DTD/sodipodi-0.dtd"
   xmlns:inkscape="http://www.inkscape.org/namespaces/inkscape"
   version="1.1"
   id="Layer_1"
   x="0px"
   y="0px"
   width="64px"
   height="64px"
   viewBox="-0.5 0.5 64 64"
   enable-background="new -0.5 0.5 64 64"
   xml:space="preserve"
   inkscape:version="0.48.2 r9819"
   sodipodi:docname="properties.svg"><metadata
   id="metadata13"><rdf:RDF><cc:Work
       rdf:about=""><dc:format>image/svg+xml</dc:format><dc:type
         rdf:resource="http://purl.org/dc/dcmitype/StillImage" /><dc:title /></cc:Work></rdf:RDF></metadata><defs
   id="defs11" /><sodipodi:namedview
   pagecolor="#ffffff"
   bordercolor="#666666"
   borderopacity="1"
   objecttolerance="10"
   gridtolerance="10"
   guidetolerance="10"
   inkscape:pageopacity="0"
   inkscape:pageshadow="2"
   inkscape:window-width="1920"
   inkscape:window-height="1178"
   id="namedview9"
   showgrid="false"
   inkscape:zoom="7.375"
   inkscape:cx="-14.630401"
   inkscape:cy="32.091079"
   inkscape:window-x="1192"
   inkscape:window-y="-8"
   inkscape:window-maximized="1"
   inkscape:current-layer="g3" />
<g
   id="g3">
	<circle
   cx="31.325"
   cy="32.873"
   r="30.096"
   id="circle5"
   fill="#FFFFFF" />
	
	
<path
   inkscape:connector-curvature="0"
   style="fill:#000000;fill-opacity:1;fill-rule:evenodd;stroke:none"
   d="m 32.747035,37.153733 1.306858,1.375485 3.78989,-3.536966 -1.306859,-1.375487 -3.789889,3.536968 z"
   id="path4421"
   sodipodi:nodetypes="ccccc" /><path
   inkscape:connector-curvature="0"
   style="fill:#000000;fill-opacity:1;stroke:#000000;stroke-width:0.9;stroke-opacity:1;stroke-miterlimit:4;stroke-dasharray:none"
   d="m 25.552412,14.300216 c -6.436371,0.163249 -11.60961,5.44167 -11.60961,11.917151 0,6.578267 5.338883,11.91715 11.91715,11.91715 6.578267,0 11.91715,-5.338883 11.91715,-11.91715 0,-6.578267 -5.338883,-11.917151 -11.91715,-11.917151 -0.102786,0 -0.205375,-0.0026 -0.30754,0 z m 0.30754,1.153273 c 5.94166,0 10.763877,4.822218 10.763877,10.763878 0,5.941661 -4.822217,10.763878 -10.763877,10.763878 -5.941661,0 -10.763878,-4.822217 -10.763878,-10.763878 0,-5.94166 4.822217,-10.763878 10.763878,-10.763878 z"
   id="path3871" /><path
   inkscape:connector-curvature="0"
   sodipodi:nodetypes="ccccc"
   id="path3975"
   d="m 34.895057,39.015257 12.21839,13.523091 c 1.28148,-0.504825 3.054261,-2.310922 3.675584,-3.475903 L 38.235618,35.811184 34.895057,39.015257 z"
   style="fill:#000000;fill-opacity:1;fill-rule:evenodd;stroke:#000000;stroke-width:0.80000001;stroke-linecap:butt;stroke-linejoin:bevel;stroke-miterlimit:4;stroke-opacity:1;stroke-dasharray:none" /><path
   sodipodi:type="arc"
   style="opacity:0.98999999;fill:none;stroke:#000000;stroke-width:0.40056711;stroke-linecap:round;stroke-linejoin:round;stroke-miterlimit:4.5999999;stroke-opacity:1;stroke-dasharray:none"
   id="path2990"
   sodipodi:cx="-28.188393"
   sodipodi:cy="6.856184"
   sodipodi:rx="10.546678"
   sodipodi:ry="10.163162"
   d="m -17.641715,6.856184 a 10.546678,10.163162 0 1 1 -21.093355,0 10.546678,10.163162 0 1 1 21.093355,0 z"
   transform="matrix(2.9075888,0,0,3.0314602,113.26878,11.657311)" /></g>
</svg>